<svg width="14" height="26" viewBox="0 0 14 26" fill="none" xmlns="http://www.w3.org/2000/svg">
<path d="M9.93341 0.833313C8.29791 0.833313 6.7294 1.48301 5.57292 2.63949C4.41645 3.79596 3.76675 5.36448 3.76675 6.99998V10.4333H0.466748C0.301415 10.4333 0.166748 10.5666 0.166748 10.7333V15.2666C0.166748 15.432 0.300081 15.5666 0.466748 15.5666H3.76675V24.8666C3.76675 25.032 3.90008 25.1666 4.06675 25.1666H8.60008C8.76541 25.1666 8.90008 25.0333 8.90008 24.8666V15.5666H12.2294C12.3667 15.5666 12.4867 15.4733 12.5201 15.34L13.6534 10.8066C13.6646 10.7624 13.6655 10.7162 13.6561 10.6716C13.6467 10.6269 13.6273 10.585 13.5992 10.549C13.5712 10.513 13.5353 10.4839 13.4944 10.4638C13.4534 10.4438 13.4084 10.4333 13.3627 10.4333H8.90008V6.99998C8.90008 6.86428 8.92681 6.72991 8.97874 6.60454C9.03067 6.47917 9.10678 6.36526 9.20274 6.2693C9.29869 6.17335 9.41261 6.09723 9.53798 6.0453C9.66335 5.99337 9.79772 5.96665 9.93341 5.96665H13.4001C13.5654 5.96665 13.7001 5.83331 13.7001 5.66665V1.13331C13.7001 0.96798 13.5667 0.833313 13.4001 0.833313H9.93341Z" fill="#333333"/>
</svg>
